HIERARCHY
ROOT Hips
{
	OFFSET -14.64140 90.27770 -84.91600
	CHANNELS 6 Xposition Yposition Zposition Zrotation Xrotation Yrotation
	JOINT Spine
	{
		OFFSET 0.00000 13.20850 -1.60436
		CHANNELS 3 Zrotation Xrotation Yrotation
		JOINT Spine1
		{
			OFFSET 0.00000 8.61716 0.00000
			CHANNELS 3 Zrotation Xrotation Yrotation
			JOINT Spine2
			{
				OFFSET 0.00000 8.61717 0.00000
				CHANNELS 3 Zrotation Xrotation Yrotation
				JOINT Spine3
				{
					OFFSET 0.00000 8.61717 0.00000
					CHANNELS 3 Zrotation Xrotation Yrotation
					JOINT Neck
					{
						OFFSET 0.00000 11.07920 1.10792
						CHANNELS 3 Zrotation Xrotation Yrotation
						JOINT Neck1
						{
							OFFSET 0.00000 7.08032 0.00000
							CHANNELS 3 Zrotation Xrotation Yrotation
							JOINT Head
							{
								OFFSET 0.00000 7.08031 0.00000
								CHANNELS 3 Zrotation Xrotation Yrotation
								End site
								{
									OFFSET 0.00000 0.00000 0.00000
								}
							}
						}
					}
					JOINT RightShoulder
					{
						OFFSET -0.01000 7.91373 5.19711
						CHANNELS 3 Zrotation Xrotation Yrotation
						JOINT RightArm
						{
							OFFSET -18.41580 0.00000 0.00000
							CHANNELS 3 Zrotation Xrotation Yrotation
							JOINT RightForeArm
							{
								OFFSET -29.11090 0.00000 0.00000
								CHANNELS 3 Zrotation Xrotation Yrotation
								JOINT RightHand
								{
									OFFSET -24.65040 0.00000 0.00000
									CHANNELS 3 Zrotation Xrotation Yrotation
									JOINT RightHandThumb1
									{
										OFFSET -5.35114 -0.85590 3.97906
										CHANNELS 3 Zrotation Xrotation Yrotation
										JOINT RightHandThumb2
										{
											OFFSET -4.52789 0.00000 0.00000
											CHANNELS 3 Zrotation Xrotation Yrotation
											JOINT RightHandThumb3
											{
												OFFSET -2.46976 0.00000 0.00000
												CHANNELS 3 Zrotation Xrotation Yrotation
												End site
												{
													OFFSET 0.00000 0.00000 0.00000
												}
											}
										}
									}
									JOINT RightHandIndex1
									{
										OFFSET -14.26970 0.00000 2.88139
										CHANNELS 3 Zrotation Xrotation Yrotation
										JOINT RightHandIndex2
										{
											OFFSET -5.48836 0.00000 0.00000
											CHANNELS 3 Zrotation Xrotation Yrotation
											JOINT RightHandIndex3
											{
												OFFSET -3.01859 0.00000 0.00000
												CHANNELS 3 Zrotation Xrotation Yrotation
												End site
												{
													OFFSET 0.00000 0.00000 0.00000
												}
											}
										}
									}
									JOINT RightHandMiddle1
									{
										OFFSET -14.26970 0.00000 -0.09147
										CHANNELS 3 Zrotation Xrotation Yrotation
										JOINT RightHandMiddle2
										{
											OFFSET -6.17441 0.00000 0.00000
											CHANNELS 3 Zrotation Xrotation Yrotation
											JOINT RightHandMiddle3
											{
												OFFSET -3.56743 0.00000 0.00000
												CHANNELS 3 Zrotation Xrotation Yrotation
												End site
												{
													OFFSET 0.00000 0.00000 0.00000
												}
											}
										}
									}
									JOINT RightHandRing1
									{
										OFFSET -12.69180 0.00000 -3.06433
										CHANNELS 3 Zrotation Xrotation Yrotation
										JOINT RightHandRing2
										{
											OFFSET -5.62556 0.00000 0.00000
											CHANNELS 3 Zrotation Xrotation Yrotation
											JOINT RightHandRing3
											{
												OFFSET -3.56744 0.00000 0.00000
												CHANNELS 3 Zrotation Xrotation Yrotation
												End site
												{
													OFFSET 0.00000 0.00000 0.00000
												}
											}
										}
									}
									JOINT RightHandPinky1
									{
										OFFSET -11.11390 0.00000 -6.03719
										CHANNELS 3 Zrotation Xrotation Yrotation
										JOINT RightHandPinky2
										{
											OFFSET -4.52789 0.00000 0.00000
											CHANNELS 3 Zrotation Xrotation Yrotation
											JOINT RightHandPinky3
											{
												OFFSET -2.46976 0.00000 0.00000
												CHANNELS 3 Zrotation Xrotation Yrotation
												End site
												{
													OFFSET 0.00000 0.00000 0.00000
												}
											}
										}
									}
								}
							}
						}
					}
					JOINT LeftShoulder
					{
						OFFSET 0.01000 7.91373 5.19711
						CHANNELS 3 Zrotation Xrotation Yrotation
						JOINT LeftArm
						{
							OFFSET 18.41580 0.00000 0.00000
							CHANNELS 3 Zrotation Xrotation Yrotation
							JOINT LeftForeArm
							{
								OFFSET 29.11090 0.00000 0.00000
								CHANNELS 3 Zrotation Xrotation Yrotation
								JOINT LeftHand
								{
									OFFSET 24.65040 0.00000 0.00000
									CHANNELS 3 Zrotation Xrotation Yrotation
									JOINT LeftHandThumb1
									{
										OFFSET 5.35114 -0.85590 3.97906
										CHANNELS 3 Zrotation Xrotation Yrotation
										JOINT LeftHandThumb2
										{
											OFFSET 4.52789 0.00000 0.00000
											CHANNELS 3 Zrotation Xrotation Yrotation
											JOINT LeftHandThumb3
											{
												OFFSET 2.46977 0.00000 0.00000
												CHANNELS 3 Zrotation Xrotation Yrotation
												End site
												{
													OFFSET 0.00000 0.00000 0.00000
												}
											}
										}
									}
									JOINT LeftHandIndex1
									{
										OFFSET 14.26970 0.00000 2.88139
										CHANNELS 3 Zrotation Xrotation Yrotation
										JOINT LeftHandIndex2
										{
											OFFSET 5.48836 0.00000 0.00000
											CHANNELS 3 Zrotation Xrotation Yrotation
											JOINT LeftHandIndex3
											{
												OFFSET 3.01859 0.00000 0.00000
												CHANNELS 3 Zrotation Xrotation Yrotation
												End site
												{
													OFFSET 0.00000 0.00000 0.00000
												}
											}
										}
									}
									JOINT LeftHandMiddle1
									{
										OFFSET 14.26970 0.00000 -0.09147
										CHANNELS 3 Zrotation Xrotation Yrotation
										JOINT LeftHandMiddle2
										{
											OFFSET 6.17440 0.00000 0.00000
											CHANNELS 3 Zrotation Xrotation Yrotation
											JOINT LeftHandMiddle3
											{
												OFFSET 3.56744 0.00000 0.00000
												CHANNELS 3 Zrotation Xrotation Yrotation
												End site
												{
													OFFSET 0.00000 0.00000 0.00000
												}
											}
										}
									}
									JOINT LeftHandRing1
									{
										OFFSET 12.69180 0.00000 -3.06433
										CHANNELS 3 Zrotation Xrotation Yrotation
										JOINT LeftHandRing2
										{
											OFFSET 5.62556 0.00000 0.00000
											CHANNELS 3 Zrotation Xrotation Yrotation
											JOINT LeftHandRing3
											{
												OFFSET 3.56744 0.00000 0.00000
												CHANNELS 3 Zrotation Xrotation Yrotation
												End site
												{
													OFFSET 0.00000 0.00000 0.00000
												}
											}
										}
									}
									JOINT LeftHandPinky1
									{
										OFFSET 11.11390 0.00000 -6.03719
										CHANNELS 3 Zrotation Xrotation Yrotation
										JOINT LeftHandPinky2
										{
											OFFSET 4.52789 0.00000 0.00000
											CHANNELS 3 Zrotation Xrotation Yrotation
											JOINT LeftHandPinky3
											{
												OFFSET 2.46976 0.00000 0.00000
												CHANNELS 3 Zrotation Xrotation Yrotation
												End site
												{
													OFFSET 0.00000 0.00000 0.00000
												}
											}
										}
									}
								}
							}
						}
					}
					JOINT pCube4
					{
						OFFSET 0.00000 10.91090 1.10792
						CHANNELS 3 Zrotation Xrotation Yrotation
						End site
						{
							OFFSET 0.00000 0.00000 0.00000
						}
					}
				}
			}
		}
	}
	JOINT RightUpLeg
	{
		OFFSET -9.98441 0.00000 0.00000
		CHANNELS 3 Zrotation Xrotation Yrotation
		JOINT RightLeg
		{
			OFFSET 0.00000 -42.11790 0.00000
			CHANNELS 3 Zrotation Xrotation Yrotation
			JOINT RightFoot
			{
				OFFSET 0.00000 -45.00020 -0.00001
				CHANNELS 3 Zrotation Xrotation Yrotation
				JOINT RightForeFoot
				{
					OFFSET 0.00000 -3.74820 0.00000
					CHANNELS 3 Zrotation Xrotation Yrotation
					JOINT RightToeBase
					{
						OFFSET 0.00000 0.06325 14.43120
						CHANNELS 3 Zrotation Xrotation Yrotation
						End site
						{
							OFFSET 0.00000 0.00000 0.00000
						}
					}
				}
			}
		}
	}
	JOINT LeftUpLeg
	{
		OFFSET 9.98441 0.00000 0.00000
		CHANNELS 3 Zrotation Xrotation Yrotation
		JOINT LeftLeg
		{
			OFFSET 0.00000 -42.11800 0.00000
			CHANNELS 3 Zrotation Xrotation Yrotation
			JOINT LeftFoot
			{
				OFFSET 0.00000 -45.00070 0.00000
				CHANNELS 3 Zrotation Xrotation Yrotation
				JOINT LeftForeFoot
				{
					OFFSET 0.00000 -3.74824 0.00000
					CHANNELS 3 Zrotation Xrotation Yrotation
					JOINT LeftToeBase
					{
						OFFSET 0.00000 0.06325 14.43110
						CHANNELS 3 Zrotation Xrotation Yrotation
						End site
						{
							OFFSET 0.00000 0.00000 0.00000
						}
					}
				}
			}
		}
	}
}
MOTION
Frames: 4
Frame Time: 0.050000
0.030467336279150964 0.040528517900340906 0.04634745741927605 0.030215971625966256 -0.010079967201593841 -0.0066229809714858714 1.354057255940704 2.4163533440097513 -1.483530783761908 -0.4594351151657618 3.9482141512736533 0.35818669044120954 -0.6842658016300402 -1.45107061716297 1.8510990838735593 -0.8472433718422259 -0.5989638595815965 -0.23266848406681845 0.07498171621876838 12.461363847949801 -0.8367909322584274 0.43581803443004613 -1.130042644537083 -3.0600977842734345 0.9590999356966934 -17.09907054692328 -0.3232261835008999 -4.497765428006333 1.85894086915593 -16.114480994460255 72.5434156837855 15.287449009286727 6.868954475721347 0.41898086613979807 1.4568684084611696 65.48826444504815 27.309528493964343 -0.3319113575215202 -5.7211887383856075 4.551711239769968 -0.10603170261507686 -1.5806316216615175 -0.010594898567929592 -0.046445857874776446 -56.22407351995624 -0.03785791343782862 -0.017806576113562785 -56.220756411430145 -38.76144859476806 0.009506116836732536 -0.00700823269615113 0.018677179247246666 -0.003198578457147593 0.0027793206634818177 -0.029197902769757488 0.027840330728565187 0.0004510444770105541 -36.70921202171908 -0.005534492723763153 -0.001857823696214587 -0.024128163874660127 -0.024493943492330326 0.03101261091647245 0.02250412860229715 -0.023301995134813472 -0.04534846965293934 -19.759968902411032 0.04861713466152914 -0.008635878425738932 -0.039545573989828595 -0.01841287492255034 -0.01204306508366077 -0.03757294719373743 0.03868382515260584 0.014418861135602425 24.008659261084215 -0.04278060550794162 0.024624190836047406 28.897919518729182 -0.012975580167337518 0.016952858672536833 28.840251432696537 -0.04162890660563231 0.005109971685935935 4.34845048173386 1.3647291190583235 14.874971221195118 -79.18147151441536 22.18010727466258 -2.1029058170450896 9.449219514435573 3.9311751119754033 -36.85080599359429 -28.514470312346955 9.265849592786774 -5.1618932176653 -0.4880803698067016 0.08194124403971581 -8.084340188983923 -0.001225761794822908 -0.04369184481571811 44.54580902714219 0.03743105335299707 0.02169306630357868 44.59142307335538 12.44943242544753 -0.0209332495523322 0.016294950439288115 0.017057374715038345 0.0008879838992386765 0.03323214976777979 0.04507440756650184 -0.030228441213617768 -0.0038450777400919653 11.114705281152338 0.04341756724223969 -0.04219557613477949 0.011057778477944043 -0.0396707955880321 0.007365449091876967 0.021923049514226536 -0.018560180620002628 -0.02545631904589204 4.755485737239339 0.045547816498952745 0.024834646938592452 0.006928612455879752 0.018676325550373934 -0.01418821733945533 0.012034477007242854 -0.032187702183697056 0.035860205208605854 -5.6344838599906835 0.026178553900684524 -0.01574908067513372 -6.679376671244569 -0.035890703862362226 -0.026964727099460288 -6.678261921900043 -0.006940099805785939 0.025470055140677905 0.019278297025255044 0.019456435218648864 -0.024510604489988666 7.997646469761285 3.5347906163279528 -19.187355247216527 0.01630471487252673 10.372311342521911 0.0024509024284295657 -5.627358634162573 -15.680897416988921 3.1930681377909127 -0.04503239107638981 0.03771679122405215 0.008832648835441142 -0.04236597151281254 4.669186137660447 0.034075596958153855 12.508554862805122 -8.266598792359723 6.906952783399639 -0.03204116003637504 46.34495961498943 0.006454702379094047 -4.281353718566347 -14.750628654115069 -3.8649070925692097 0.02471097910576451 0.040182964924523834 -0.04110530093194884 0.027832700323691176 -10.702715903890788 0.048553500403525046 
0.04035023996178501 -0.008653186728336941 -0.01234919207835853 -0.047060644681426594 -0.01196078514171676 0.0092420572244071 1.7968069797560193 2.5499740476686674 -1.5835507272581384 -0.5474524422174287 3.8604556427013783 0.3595059629854277 -0.7065248054674619 -1.378453511866052 1.7235910414892281 -0.856853632082026 -0.5689422939705927 -0.22129016941981625 0.11285059954126057 12.302661640830122 -0.9106159193293258 0.556098421163529 -1.0760856560469307 -2.970885923933537 0.9792408565618704 -17.116541730012198 -0.2545659578166966 -5.066728470785194 2.065875284146861 -16.460141947549417 74.43275842054815 13.939127971700147 6.049812242316217 -1.6608491703945574 0.8069783458094664 61.90385050155055 26.966255721208903 -0.29030012994798154 -5.667396255144385 4.479368733403883 -0.14248935805266677 -1.621964050831564 0.0010100157078207722 0.023286558159149717 -56.196887732886786 0.017816480160743848 -0.021792224758030627 -56.233560305260106 -38.81610916607975 -0.00938455167574868 -0.04658354967868818 0.03422589569675122 0.023306937782596588 -0.03968979950342597 0.02797332651977558 -0.049910188561130296 -0.0434367036320881 -36.70643429563517 0.0054200904539714045 -0.04397523427216175 -0.007897533739559549 -0.007357829508391346 0.018941957939188795 -0.046982993418945275 -0.018241794598443713 0.006627177417470652 -19.803922906707182 -0.04465731433045245 0.033124011248714155 -0.0022746342000042117 -0.0005276554889941436 -0.029920706446013166 0.03340251288856026 0.018536230494947285 -0.027891333000181984 24.07797067846893 -0.04453288635105745 0.04099940196236757 28.88644340679997 0.021016534030911402 0.021732996532091035 28.8484479734242 -0.016008205346354984 -0.03071952035464539 4.725102190214511 1.4385109321445608 14.880644731687257 -79.38439965332526 21.764942972751875 -2.5844789703712476 9.399798467333786 3.46410622239583 -36.221618100259285 -27.709200831172677 8.088107816152014 -4.047523630896201 -0.5089835628891518 0.022206498045657823 -8.143411453124651 -0.0076099528981383065 0.036372431242941206 44.591356294913986 0.002895018071451282 0.04912037232854883 44.59350308315027 12.436439918760998 0.018460800016025153 0.01658229114214818 0.01969155100538076 0.03285871379016747 0.004066172713442788 0.027148208908753992 0.04718799852784105 -0.017725600113308752 11.081181763844636 0.035503684348441235 0.039540177595798476 0.004903099792065631 -0.017322186670589636 -0.03090840237388405 0.030324140581510152 -0.04681410693787198 0.016316436436349658 4.7605692964592885 -0.04017784769378588 0.028370324801801284 -0.0018749301531556886 -0.023133176421577785 -0.01566406050862767 -0.00982327217167477 0.015807515310782602 0.010969908390907715 -5.6121437027413 -0.008602951519415529 0.012596588165344782 -6.741342932810427 -0.008867528483383819 0.04694321119613626 -6.7393121180180495 -0.0053571474096856695 -0.01101637597482389 -0.01316691011529339 0.04108917494208987 0.02329185129868531 8.040898528129995 3.4582688861158126 -19.229341029455515 0.0029669351643201412 10.409240587845392 -0.03131341755696265 -5.6460637491067045 -15.659799875061275 3.1604960788400853 0.02532354998477851 0.042620073701514834 0.03610559868099479 -0.03004684694335098 4.700946168079322 -0.016793265003974413 12.429351289707753 -8.248978559492766 6.857152748927784 -0.02546778937328649 46.409943914411606 -0.003416425636911455 -4.334872575464608 -14.758617991392043 -3.796776643940359 0.02118036836582408 0.04192972293411674 -0.04554604306171243 0.0168291998040943 -10.747082175586515 -0.040312008211324045 
-0.03768837644923604 -0.02878706591376934 0.01841547088036177 0.0357647103748448 0.03887532112318574 0.0015366635921846127 2.295368604706403 2.65804164951735 -1.6792329520830838 -0.5407205010251034 3.858486075123098 0.4033204272102465 -0.7034264625942016 -1.3936144002986348 1.6305237885816886 -0.7432741819002258 -0.5755166603105755 -0.22392670639762205 0.08616152157447449 12.305446516568464 -1.006212585124832 0.4976071441173085 -1.0247308070343064 -3.082364993679735 1.0246299277108089 -17.198098447953985 -0.3388643272425121 -5.849989447665838 2.2887152839080733 -16.824213469968985 76.15549823862389 12.976804927650074 5.6461394539583365 -3.5622443511420556 0.24168328296098263 59.578600547118846 26.600592461286368 -0.22289055598962554 -5.74883543769258 4.5445493896389975 -0.10984823452464743 -1.6140237080206166 -0.0028683261273887146 0.029346594252630354 -56.234370446102346 0.04253798842671602 0.04859812593900263 -56.18870279637561 -38.81608395775186 0.031273462050282044 -0.025933725194734858 -0.009971766490694903 0.012845781644712702 -0.01629790023421073 -0.02061249430900028 -0.008576712903891942 0.03712893020535189 -36.68439477244524 -0.023667836834686956 -0.00868135057923781 -0.040353148939846865 -0.003101863805316414 -0.0004072528769940288 -0.027106308260917943 -0.030067452330192892 0.007504589021886146 -19.788036910289996 -0.03104086943697323 -0.01432446920929532 -0.027636709812190217 -0.005494296561473469 0.020347144633407442 -0.007208587495655041 0.014009875147090097 0.006710910085450263 24.0474662395481 -0.0009017137324717258 -0.030138446914198695 28.866938678002345 0.017857991189073302 0.007032434888921347 28.86789594453706 0.009316610837800523 0.007185677181677789 5.3613019898845415 1.572552149473988 14.997219066283252 -79.59472592865143 21.22136313097059 -3.2179147853606627 9.374867727843544 3.6487738877845666 -35.804345513476946 -27.095133473424983 7.081151847285 -3.130962126448059 -0.4705233973646072 0.037929979646888795 -8.103136286548656 -0.04482383761166027 -0.016136026616567503 44.542501743063866 -0.03646461380855508 0.02963478149879365 44.5419908838483 12.472818449699668 0.008498204064070702 0.03768770253605111 0.006808619697991827 -0.008468533875332893 0.03528163220758523 0.002959626214271738 -0.009966744345134932 -0.03134156897574683 11.12576808105125 0.022601322739985743 0.03965606417944464 0.039066237403535244 -0.048656100049893417 -0.04729406700839851 -0.011992179936540183 -0.03043141853526615 -0.005875414240701262 4.758597975536821 -0.031721620562127656 -0.0499377615885533 -0.009193104074584292 -0.021939325890326832 0.028166195381581143 -0.04211270440843958 -0.020567263380579084 -0.0231221999790425 -5.593990276230659 0.009799940974390563 -0.006814039344350257 -6.713767823092386 -0.008800644158412233 0.021298686655695304 -6.741565684203551 0.005505359154915204 0.015030325655566083 -0.0010072734255204866 -0.02258388498590802 0.020171250395423005 8.058253013190619 3.5255566144979236 -19.214066204198318 0.03691686414676666 10.411261403002198 -0.01981499675636995 -5.619494506629606 -15.63831153548037 3.2215718992437434 -0.008424823849687608 -0.03914572220846336 -0.02069586354908353 -0.014079644526012196 4.692347356288154 -0.011434800538497396 12.418252176568103 -8.201447520769769 6.903573055741453 -0.032774650860377515 46.41256988465679 -0.01184841527627721 -4.309683980123108 -14.77014936681734 -3.8570033801912538 0.02016390513985541 -0.027326964230744447 -0.034137739594853604 -0.0025330106394743125 -10.702327364012072 0.004679906445533294 
-0.03686894153075287 0.039967887292434806 0.04225650067144666 0.02249834837857058 -0.04459106900024796 -0.02579048909304102 2.853709390494018 2.792471713025144 -1.8264733424291109 -0.619711982911628 3.7948986835944796 0.327801474213799 -0.6566784687594024 -1.363336533138686 1.5743068798047128 -0.7340934678110067 -0.5820570906634366 -0.1947129107916276 0.13598060436858386 12.341979102423188 -1.1872905791176669 0.5925888733394319 -1.0064165278686246 -3.1985996459529873 1.1114275990739655 -17.270407302107955 -0.28481295920171973 -6.5998655664072 2.5245888406188297 -17.17259788898449 77.71322836166435 12.493391496293887 5.224709698001215 -5.828673151205958 0.25553577777543596 57.48826419218699 26.19380662269633 -0.2565396478688301 -5.643180381329617 4.5063343392939 -0.11994090213973757 -1.5660021053905517 -0.004231570362776468 -0.04826542638088729 -56.26486672421539 0.019697907443912387 -0.049835317972905996 -56.18883488507655 -38.76601195600114 -0.02694465374381506 -0.00432776624134112 0.0224697977793202 0.020841953589113168 0.047953365134882915 -0.02584295938063174 -0.014335005990610345 0.0016879274393155478 -36.653806230516395 -0.027905632266260045 0.024252287626174023 0.006873360373122133 0.0011451981084023165 -0.020777007093745355 -0.014631182004514263 -0.007697516317058604 0.015964769901986878 -19.760366391572155 0.02515092758992578 -0.011040588738257329 -0.04518591056104927 -0.04790172825745962 -0.010536172640061828 -0.03291296337940547 -0.007675801827202256 -0.015044856253630178 24.08008422683197 0.015198421658280488 0.022824609614359528 28.82888779986993 -0.041700046170747455 -0.02692991627698312 28.86905973516658 -0.00579636644017903 0.04666621725457067 5.998705767834817 1.7319436684310925 15.073212067459982 -79.7741233108471 20.72690258006765 -3.7635680120337236 9.22554983760428 4.186302412661966 -35.709957048244384 -26.452730761760932 6.106916767667651 -2.39626795454517 -0.48874994325512333 0.06044761035085221 -8.097367028513125 -0.02123464415987495 -0.018102669090185833 44.53668210359121 -0.04759661863957254 0.0209590379198626 44.53885872365539 12.48356739168849 -0.013069261409096007 -0.007304995921067518 -0.017792795969906794 -0.03463404333492383 0.03519332036151772 -0.03532153055409777 0.04291781148233816 0.046483967995766505 11.103086745671371 -0.028402631756882894 -1.6678572441219367e-05 0.02455818629864016 -0.03841697239753831 -0.020475963566310415 -0.004864289145252707 0.036847408834865446 0.03927201634372158 4.75568419754459 0.013891487452318689 0.0105449873173416 0.037636781554549185 0.03352328190304516 0.024232620174942012 0.024648405018596723 0.02267313322360087 0.028085431879410688 -5.59883618785043 0.023422141379657094 0.023376733061585567 -6.706796783357434 0.011947471506826826 -0.03713052658737744 -6.735502514448325 -0.04465746398252439 -0.006473083366918479 0.00897102403716956 0.009507261951886203 0.04714503881724595 8.073453759363664 3.4580749001837994 -19.182098180297242 0.03885272343846708 10.38076568029624 -0.012168376343265487 -5.612543101994094 -15.645197757141787 3.2002716410811956 0.008287049895276543 -0.0469629572626583 0.03347944215393545 -0.005517936575774318 4.739248662112914 -0.0038411829501101232 12.473578741834398 -8.207273599597446 6.899658057772131 -0.0005172479139705443 46.33959866466966 0.04078965387821562 -4.3686783845728945 -14.71485634933008 -3.867119302956536 0.0443200636485135 -0.013559350312746271 0.04374544182897979 -0.009340188846019415 -10.77654308141372 0.014472464943805725 
